<svg xmlns="http://www.w3.org/2000/svg" viewBox="0 0 512 512">
  <rect width="512" height="512" rx="96" fill="#020617"/>
  <circle cx="256" cy="256" r="168" fill="#0f172a" stroke="#38bdf8" stroke-width="18"/>
  <path d="M88 256h336M256 88v336M137 137l238 238M375 137 137 375" stroke="#475569" stroke-width="12" stroke-linecap="round"/>
  <path d="M148 275c52-54 104-81 156-81 36 0 64 13 84 38 7 9 7 22 0 31-20 25-48 38-84 38-52 0-104-27-156-81-8-8-8-21 0-29Z" fill="#e2e8f0"/>
  <path d="M170 256h212" stroke="#0f172a" stroke-width="14" stroke-linecap="round"/>
  <circle cx="256" cy="256" r="56" fill="none" stroke="#f8fafc" stroke-width="12"/>
</svg>
